<svg width="25" height="24" viewBox="0 0 25 24" fill="none" xmlns="http://www.w3.org/2000/svg">
<mask id="mask0_4452_1929" style="mask-type:alpha" maskUnits="userSpaceOnUse" x="0" y="0" width="25" height="24">
<rect x="0.5" width="24" height="24" fill="#D9D9D9"/>
</mask>
<g mask="url(#mask0_4452_1929)">
<path d="M12.5 21C12.2167 21 11.9792 20.9042 11.7875 20.7125C11.5958 20.5208 11.5 20.2833 11.5 20V13H4.5C4.21667 13 3.97917 12.9042 3.7875 12.7125C3.59583 12.5208 3.5 12.2833 3.5 12C3.5 11.7167 3.59583 11.4792 3.7875 11.2875C3.97917 11.0958 4.21667 11 4.5 11H11.5V4C11.5 3.71667 11.5958 3.47917 11.7875 3.2875C11.9792 3.09583 12.2167 3 12.5 3C12.7833 3 13.0208 3.09583 13.2125 3.2875C13.4042 3.47917 13.5 3.71667 13.5 4V11H20.5C20.7833 11 21.0208 11.0958 21.2125 11.2875C21.4042 11.4792 21.5 11.7167 21.5 12C21.5 12.2833 21.4042 12.5208 21.2125 12.7125C21.0208 12.9042 20.7833 13 20.5 13H13.5V20C13.5 20.2833 13.4042 20.5208 13.2125 20.7125C13.0208 20.9042 12.7833 21 12.5 21Z" fill="#10310B"/>
</g>
</svg>
