<svg width="20" height="20" viewBox="0 0 20 20" fill="none" xmlns="http://www.w3.org/2000/svg">
<mask id="mask0_4184_2199" style="mask-type:alpha" maskUnits="userSpaceOnUse" x="0" y="0" width="20" height="20">
<rect width="20" height="20" fill="#D9D9D9"/>
</mask>
<g mask="url(#mask0_4184_2199)">
<path d="M10.0001 16.9374C9.80564 16.9374 9.60772 16.9027 9.40633 16.8333C9.20494 16.7638 9.02786 16.6527 8.87508 16.4999L7.43758 15.1874C5.96536 13.8402 4.6355 12.5034 3.448 11.177C2.2605 9.85061 1.66675 8.38881 1.66675 6.79159C1.66675 5.48603 2.10425 4.39575 2.97925 3.52075C3.85425 2.64575 4.94453 2.20825 6.25008 2.20825C6.98619 2.20825 7.68064 2.3645 8.33341 2.677C8.98619 2.9895 9.54175 3.41659 10.0001 3.95825C10.4584 3.41659 11.014 2.9895 11.6667 2.677C12.3195 2.3645 13.014 2.20825 13.7501 2.20825C15.0556 2.20825 16.1459 2.64575 17.0209 3.52075C17.8959 4.39575 18.3334 5.48603 18.3334 6.79159C18.3334 8.38881 17.7431 9.85409 16.5626 11.1874C15.382 12.5208 14.0417 13.861 12.5417 15.2083L11.1251 16.4999C10.9723 16.6527 10.7952 16.7638 10.5938 16.8333C10.3924 16.9027 10.1945 16.9374 10.0001 16.9374ZM9.20841 5.62492C8.80564 5.05547 8.37508 4.62145 7.91675 4.32284C7.45841 4.02422 6.90286 3.87492 6.25008 3.87492C5.41675 3.87492 4.7223 4.1527 4.16675 4.70825C3.61119 5.26381 3.33341 5.95825 3.33341 6.79159C3.33341 7.51381 3.59036 8.28117 4.10425 9.09367C4.61814 9.90617 5.23272 10.6944 5.948 11.4583C6.66328 12.2221 7.39939 12.9374 8.15633 13.6041C8.91328 14.2708 9.52786 14.8194 10.0001 15.2499C10.4723 14.8194 11.0869 14.2708 11.8438 13.6041C12.6008 12.9374 13.3369 12.2221 14.0522 11.4583C14.7674 10.6944 15.382 9.90617 15.8959 9.09367C16.4098 8.28117 16.6667 7.51381 16.6667 6.79159C16.6667 5.95825 16.389 5.26381 15.8334 4.70825C15.2779 4.1527 14.5834 3.87492 13.7501 3.87492C13.0973 3.87492 12.5417 4.02422 12.0834 4.32284C11.6251 4.62145 11.1945 5.05547 10.7917 5.62492C10.6945 5.76381 10.5765 5.86797 10.4376 5.93742C10.2987 6.00686 10.1529 6.04159 10.0001 6.04159C9.8473 6.04159 9.70147 6.00686 9.56258 5.93742C9.42369 5.86797 9.30564 5.76381 9.20841 5.62492Z" fill="#10310B"/>
</g>
</svg>
