<svg width="25" height="24" viewBox="0 0 25 24" fill="none" xmlns="http://www.w3.org/2000/svg">
<mask id="mask0_4059_442" style="mask-type:alpha" maskUnits="userSpaceOnUse" x="0" y="0" width="25" height="24">
<rect x="0.5" width="24" height="24" fill="#D9D9D9"/>
</mask>
<g mask="url(#mask0_4059_442)">
<path d="M6.5 22.0001V12.8501C5.6 12.6168 4.875 12.1418 4.325 11.4251C3.775 10.7085 3.5 9.90012 3.5 9.00012V2.00012H5.5V8.00012H6.5V2.00012H8.5V8.00012H9.5V2.00012H11.5V9.00012C11.5 9.90012 11.225 10.7085 10.675 11.4251C10.125 12.1418 9.4 12.6168 8.5 12.8501V22.0001H6.5ZM16.5 22.0001V12.4751C15.6 12.1751 14.875 11.546 14.325 10.5876C13.775 9.62929 13.5 8.54179 13.5 7.32512C13.5 5.84179 13.8917 4.58346 14.675 3.55012C15.4583 2.51679 16.4 2.00012 17.5 2.00012C18.6 2.00012 19.5417 2.52096 20.325 3.56262C21.1083 4.60429 21.5 5.86679 21.5 7.35012C21.5 8.56679 21.225 9.65012 20.675 10.6001C20.125 11.5501 19.4 12.1751 18.5 12.4751V22.0001H16.5Z" fill="#10310B"/>
</g>
</svg>
