<svg width="25" height="24" viewBox="0 0 25 24" fill="none" xmlns="http://www.w3.org/2000/svg">
<mask id="mask0_4059_410" style="mask-type:alpha" maskUnits="userSpaceOnUse" x="0" y="0" width="31" height="30">
<rect x="0.5" width="30" height="30" fill="#D9D9D9"/>
</mask>
<g mask="url(#mask0_4059_410)">
<path d="M13.5 11.6001V8.00012C13.5 7.71679 13.4042 7.47929 13.2125 7.28762C13.0208 7.09596 12.7833 7.00012 12.5 7.00012C12.2167 7.00012 11.9792 7.09596 11.7875 7.28762C11.5958 7.47929 11.5 7.71679 11.5 8.00012V11.9751C11.5 12.1085 11.525 12.2376 11.575 12.3626C11.625 12.4876 11.7 12.6001 11.8 12.7001L15.1 16.0001C15.2833 16.1835 15.5167 16.2751 15.8 16.2751C16.0833 16.2751 16.3167 16.1835 16.5 16.0001C16.6833 15.8168 16.775 15.5835 16.775 15.3001C16.775 15.0168 16.6833 14.7835 16.5 14.6001L13.5 11.6001ZM12.5 22.0001C11.1167 22.0001 9.81667 21.7376 8.6 21.2126C7.38333 20.6876 6.325 19.9751 5.425 19.0751C4.525 18.1751 3.8125 17.1168 3.2875 15.9001C2.7625 14.6835 2.5 13.3835 2.5 12.0001C2.5 10.6168 2.7625 9.31679 3.2875 8.10012C3.8125 6.88346 4.525 5.82512 5.425 4.92512C6.325 4.02512 7.38333 3.31262 8.6 2.78762C9.81667 2.26262 11.1167 2.00012 12.5 2.00012C13.8833 2.00012 15.1833 2.26262 16.4 2.78762C17.6167 3.31262 18.675 4.02512 19.575 4.92512C20.475 5.82512 21.1875 6.88346 21.7125 8.10012C22.2375 9.31679 22.5 10.6168 22.5 12.0001C22.5 13.3835 22.2375 14.6835 21.7125 15.9001C21.1875 17.1168 20.475 18.1751 19.575 19.0751C18.675 19.9751 17.6167 20.6876 16.4 21.2126C15.1833 21.7376 13.8833 22.0001 12.5 22.0001ZM12.5 20.0001C14.7167 20.0001 16.6042 19.221 18.1625 17.6626C19.7208 16.1043 20.5 14.2168 20.5 12.0001C20.5 9.78346 19.7208 7.89596 18.1625 6.33762C16.6042 4.77929 14.7167 4.00012 12.5 4.00012C10.2833 4.00012 8.39583 4.77929 6.8375 6.33762C5.27917 7.89596 4.5 9.78346 4.5 12.0001C4.5 14.2168 5.27917 16.1043 6.8375 17.6626C8.39583 19.221 10.2833 20.0001 12.5 20.0001Z" fill="#10310B"/>
</g>
</svg>
