<svg width="29" height="28" viewBox="0 0 29 28" fill="none" xmlns="http://www.w3.org/2000/svg">
<path d="M10.0556 15.1111H18.9444C19.2593 15.1111 19.5231 15.0046 19.7361 14.7917C19.9491 14.5787 20.0556 14.3148 20.0556 14C20.0556 13.6852 19.9491 13.4213 19.7361 13.2083C19.5231 12.9954 19.2593 12.8889 18.9444 12.8889H10.0556C9.74074 12.8889 9.47685 12.9954 9.26389 13.2083C9.05093 13.4213 8.94444 13.6852 8.94444 14C8.94444 14.3148 9.05093 14.5787 9.26389 14.7917C9.47685 15.0046 9.74074 15.1111 10.0556 15.1111ZM6.72222 24C6.11111 24 5.58796 23.7824 5.15278 23.3472C4.71759 22.912 4.5 22.3889 4.5 21.7778V6.22222C4.5 5.61111 4.71759 5.08796 5.15278 4.65278C5.58796 4.21759 6.11111 4 6.72222 4H22.2778C22.8889 4 23.412 4.21759 23.8472 4.65278C24.2824 5.08796 24.5 5.61111 24.5 6.22222V21.7778C24.5 22.3889 24.2824 22.912 23.8472 23.3472C23.412 23.7824 22.8889 24 22.2778 24H6.72222ZM6.72222 21.7778H22.2778V6.22222H6.72222V21.7778Z" fill="#10310B"/>
</svg>
