<svg width="29" height="28" viewBox="0 0 29 28" fill="none" xmlns="http://www.w3.org/2000/svg">
<path d="M12.8333 15.6667V17.8889C12.8333 18.3519 12.9954 18.7454 13.3194 19.0694C13.6435 19.3935 14.037 19.5556 14.5 19.5556C14.963 19.5556 15.3565 19.3935 15.6806 19.0694C16.0046 18.7454 16.1667 18.3519 16.1667 17.8889V15.6667H18.3889C18.8519 15.6667 19.2454 15.5046 19.5694 15.1806C19.8935 14.8565 20.0556 14.463 20.0556 14C20.0556 13.537 19.8935 13.1435 19.5694 12.8194C19.2454 12.4954 18.8519 12.3333 18.3889 12.3333H16.1667V10.1111C16.1667 9.64815 16.0046 9.25463 15.6806 8.93056C15.3565 8.60648 14.963 8.44444 14.5 8.44444C14.037 8.44444 13.6435 8.60648 13.3194 8.93056C12.9954 9.25463 12.8333 9.64815 12.8333 10.1111V12.3333H10.6111C10.1481 12.3333 9.75463 12.4954 9.43056 12.8194C9.10648 13.1435 8.94444 13.537 8.94444 14C8.94444 14.463 9.10648 14.8565 9.43056 15.1806C9.75463 15.5046 10.1481 15.6667 10.6111 15.6667H12.8333ZM6.72222 24C6.11111 24 5.58796 23.7824 5.15278 23.3472C4.71759 22.912 4.5 22.3889 4.5 21.7778V6.22222C4.5 5.61111 4.71759 5.08796 5.15278 4.65278C5.58796 4.21759 6.11111 4 6.72222 4H22.2778C22.8889 4 23.412 4.21759 23.8472 4.65278C24.2824 5.08796 24.5 5.61111 24.5 6.22222V21.7778C24.5 22.3889 24.2824 22.912 23.8472 23.3472C23.412 23.7824 22.8889 24 22.2778 24H6.72222ZM6.72222 21.7778H22.2778V6.22222H6.72222V21.7778Z" fill="#10310B"/>
</svg>
