<svg width="25" height="24" viewBox="0 0 25 24" fill="none" xmlns="http://www.w3.org/2000/svg">
<mask id="mask0_4059_428" style="mask-type:alpha" maskUnits="userSpaceOnUse" x="0" y="0" width="25" height="24">
<rect x="0.5" width="24" height="24" fill="#D9D9D9"/>
</mask>
<g mask="url(#mask0_4059_428)">
<path d="M12.5 22C11.1167 22 9.81667 21.7375 8.6 21.2125C7.38333 20.6875 6.325 19.975 5.425 19.075C4.525 18.175 3.8125 17.1167 3.2875 15.9C2.7625 14.6833 2.5 13.3833 2.5 12C2.5 10.6167 2.7625 9.31667 3.2875 8.1C3.8125 6.88333 4.525 5.825 5.425 4.925C6.325 4.025 7.38333 3.3125 8.6 2.7875C9.81667 2.2625 11.1167 2 12.5 2C13.8833 2 15.1833 2.2625 16.4 2.7875C17.6167 3.3125 18.675 4.025 19.575 4.925C20.475 5.825 21.1875 6.88333 21.7125 8.1C22.2375 9.31667 22.5 10.6167 22.5 12C22.5 13.3833 22.2375 14.6833 21.7125 15.9C21.1875 17.1167 20.475 18.175 19.575 19.075C18.675 19.975 17.6167 20.6875 16.4 21.2125C15.1833 21.7375 13.8833 22 12.5 22ZM11.5 19.95V18C10.95 18 10.4792 17.8042 10.0875 17.4125C9.69583 17.0208 9.5 16.55 9.5 16V15L4.7 10.2C4.65 10.5 4.60417 10.8 4.5625 11.1C4.52083 11.4 4.5 11.7 4.5 12C4.5 14.0167 5.1625 15.7833 6.4875 17.3C7.8125 18.8167 9.48333 19.7 11.5 19.95ZM18.4 17.4C19.0833 16.65 19.6042 15.8125 19.9625 14.8875C20.3208 13.9625 20.5 13 20.5 12C20.5 10.3667 20.0458 8.875 19.1375 7.525C18.2292 6.175 17.0167 5.2 15.5 4.6V5C15.5 5.55 15.3042 6.02083 14.9125 6.4125C14.5208 6.80417 14.05 7 13.5 7H11.5V9C11.5 9.28333 11.4042 9.52083 11.2125 9.7125C11.0208 9.90417 10.7833 10 10.5 10H8.5V12H14.5C14.7833 12 15.0208 12.0958 15.2125 12.2875C15.4042 12.4792 15.5 12.7167 15.5 13V16H16.5C16.9333 16 17.325 16.1292 17.675 16.3875C18.025 16.6458 18.2667 16.9833 18.4 17.4Z" fill="#10310B"/>
</g>
</svg>
